/* XPM */
static char *so_long_asteroid_resized[] = {
/* columns rows colors chars-per-pixel */
"50 50 101 2 ",
"   c black",
".  c black",
"X  c #010F5B",
"o  c #090F5B",
"O  c #100F5C",
"+  c black",
"@  c #0C105C",
"#  c #11105D",
"$  c #19115F",
"%  c #260D41",
"&  c #2F0F4E",
"*  c #2E104F",
"=  c #330F54",
"-  c #2E1050",
";  c #341156",
":  c #371359",
">  c #38135C",
",  c black",
"<  c black",
"1  c #091163",
"2  c #0F126A",
"3  c #131264",
"4  c #1C1262",
"5  c #15136A",
"6  c #1E1369",
"7  c #1F1575",
"8  c #211264",
"9  c #2C1467",
"0  c #21136A",
"q  c #2D1569",
"w  c #351466",
"e  c #3D1465",
"r  c #34156B",
"t  c #3D166D",
"y  c #231574",
"u  c #2B1675",
"i  c #29187C",
"p  c #321671",
"a  c #3B1673",
"s  c #371877",
"d  c #37177A",
"f  c #35187B",
"g  c #3B197B",
"h  c #1C2666",
"j  c #1E296D",
"k  c #1B2674",
"l  c #1C2A72",
"z  c #2D3777",
"x  c #2E397D",
"c  c #313A7C",
"v  c #401366",
"b  c #43166D",
"n  c #43186F",
"m  c #451772",
"M  c #481773",
"N  c #451874",
"B  c #481875",
"V  c #401A7F",
"C  c #4C1A7B",
"Z  c #50197F",
"A  c #2F1885",
"S  c #311985",
"D  c #3C1C89",
"F  c #2C3881",
"G  c #303D84",
"H  c #441A84",
"J  c #4F1B82",
"K  c #4A1C8C",
"L  c #521C84",
"P  c #551D8A",
"I  c #581D8F",
"U  c #5B1F94",
"Y  c #5E1F9A",
"T  c #611F9C",
"R  c #5B2095",
"E  c #5F209A",
"W  c #62219E",
"Q  c #5121A5",
"!  c #5D23AB",
"~  c #6422A4",
"^  c #6723A9",
"/  c #6923AB",
"(  c #6225B5",
")  c #6D25B2",
"_  c #6625B8",
"`  c #7026B6",
"'  c #7326BB",
"]  c #7428BC",
"[  c #4D5997",
"{  c #505A96",
"}  c #525B9B",
"|  c #525CA1",
" . c #7627C1",
".. c #7827C3",
"X. c black",
"o. c #7A28C5",
"O. c #7D2ACC",
"+. c #7F2AD1",
"@. c #802ACF",
"#. c #832BD4",
"$. c #842BD8",
/* pixels */
". . . X . + . . . . . . .   .   .   . . .                                                           ",
". . . X . . . . . . . . . .   . .     .   . .         .       .       .                             ",
". . X . . X . . . . . . . . . . . . . .   . . . . . h c .   .         . .   .                       ",
". . . . X . + . . . X . h c . . .   . . . . . . .   z { . . . .   . . . . . .   . .   .             ",
"X . X . . X . . . . X . c { X . . . + . . . . . . . . . . . . .   . . .   . . . . . .               ",
". . . . . . . j c . . . . X . . . . . . . . . . .   . . .   .   . . .   . .   .   . .     h c   .   ",
". . X . X . . c [ . . X X . . . . . . . . . . . . . . . . . . . .     . . . .   .   . . . z {       ",
". X . . . . . X o . . . . 3 u O . . . . . . X . . . . . . . . . . . . . .   . . . . .   . .         ",
". . . X . X . X . . . 3 S Q / q . . . . . . . . . . . . . . + . . . . . . . .   . . . . . . .       ",
"X . . . . X . . . . 3 Q O.] W q . . X . X X . X . . 3 A 7 . . . . . . . . . . .   .     .   .   .   ",
". . . X . . . . . . A o./ L C 9 o . . X . . . . . . i X._ 7 . + . + . + . . . . . . . .   .   . .   ",
"X X . . . X . X . . S ` L C t 8 . . . . X . . X . . 3 K X.^ 3 . . . . . . . . .   . .   . . . .     ",
"X X . . . X . . + . S ` C t 8 . . + . . . . X . . . . 3 K / s + + . . . . . . . .   . .   . . .     ",
"X X X . X X . X . . i E t $ . . . . . . . X . . . . . . 3 s q . . . . . . . . . . .   . . . .       ",
"X + X X . X X . . . # q 4 . . . . . . . . . . . . . . . . . . + . . . j c . . . . . . . .   . .     ",
"X , < . X . . . . . . . . + . . . . . + . X . X X X + . . . . . . . . c } . . . . .   . . .   . .   ",
"+ + + + + + . + . X . . . . . . + . . . . . + . . . . . + . . . . + . X X . X . . . .   . . . . .   ",
"+ + + + + + . . X + . . . . + . . . . + . . . . . . . + . . . + . . . . . . . . X . . .   .         ",
"+ + + + + . . . . . . . . X . . . . o . . @ 6 0 6 0 6 @ @ $ # . . . . . X X . X . . . . . . .       ",
"+ < + . + + . . X . + . . . . + . . . @ 6 f I I R L C r q m r $ $ # . . . . . . X . X .   . . . .   ",
"+ < + + + + . . . X . . . . X . . . o q I ~ R Z U U L C P L C B N r # + X X . . . . X . . . . . .   ",
"+ + < X l x + . . . X . . . . . @ 6 f U R R v % e / Y Y I m m C Z m 9 . . X . X . X . . . . . . . . ",
"< + + X G } @ . . . . . . . . @ p P W R t > % % B X.o.] U t > > b v w . X . . . . . . . . . . . .   ",
"+ + + < + + + . X . X . . . @ p P ~ W L m n n C / #.$.o.R L B : * : 9 X . . . . . X . X . . .     . ",
"+ + < + + < + . . . + . . . 0 P / ) E / #.#.#.o.o.$.$.$...~ ~ L * : 9 . . . . . . . . . . . . .   . ",
", < + + + + + . . . . . . . 6 Y o.+.o.o.+.$.' Y ' $.#.#.#.#.@.T e t w # $ # . . . . . + . . .   .   ",
", X + + + . + . + . . . . . 8 Y  .O.+.#.O.#.` P ) #.$.#.#.@.^ L P L C N B 9 . . j G . . . . . .     ",
", , < + + + + + . . . . + . 8 U ^ / ) #.#.#.#.$.$.#.@.$.#.o.~ ~ E L L P C q . . c } . . . + . .     ",
", , < + + + + . . . . o . + q I T T )  . .#.#.#.#.o.o.#.@...@.' ` E R L C > . . . + . . . . . .   . ",
", , + + + + + + + . . . . 3 C E ' o.#. ./ o.#.#.O.) ~ o.' ~ ) T / / W C B j . . . . . . . . . . .   ",
", , + + < + . + + . . . . # a W ] o.O.#.+.o.#.#.O.U v U ~ ] ' ` W R J B N h . . . . . . . . . .     ",
", , + + + < . X + . + . X . 3 H ^ ) ) o.#.#.o.o.) C = = C ) ` ^ ^ R C s - . . + . . . + . . . . .   ",
", , + + < 2 i A 7 + . + . . + $ Z R R ` O.O.O.X.R * & e L R W L C b t 4 . @ 6 @ . . . . . . . . .   ",
", , < + 1 D  .O.( A y . . . . # r B Z W ] ] o.o.~ t ; b L L L C r t 4 . . 4 C r # . X . X . . .     ",
", , , X 6 E X.+.+.#.Q + + . . . $ n B I / / ) ] ) C e L L L C t 9 9 . . . # r m 9 X . . . . .       ",
", , , , 3 K / o.+.#._ 7 . . . . # q r B J P R ~ C * : m C C n t 9 8 . X . . # 9 4 X X . . . . . .   ",
", , , , + y U / X.@.#.Q + . . + . . $ n B J P M : e > w r q 9 4 . . + . . . . . . . . . . . . .     ",
", , , , X 5 V E / ) ' ! y . . . X . # 9 r B Z M v C C q o + . . . X . . . @ 4 @ o $ # . . + . . .   ",
", , , , , , 5 f C P P W R + + . . . X X # 9 q 9 r t q 4 . . . . . . . . @ 9 B r 8 N q . . . . .     ",
", , , , , , + < 5 d s s y + + + X . X . . . o . # 4 . . . . . + . X . @ u L L C n t 4 . . . .       ",
", , , , , , < , < + < + + + + X + . . + . . + . . . . . . . . . . . . # g P Z n t $ . . X . . .     ",
", , , , , X < , < + + + + + X X + . + . . . . . . . X . X X . . . . + . 0 L C N w X . . . . . .     ",
", , , , , , , , < + , + + < X + + + + . + . . . + . . X . . . + . + . + 4 p r q $ . . X . . .       ",
", , , , , , , , < , , , < X < X + . + + + . + . . . . . X . . . . . . . . . + . X . . . . . . .     ",
", , , , , , , , , , , , , , + + X X X X X + X X + . . X . . . . . + X . + . . . . . . . . .   .     ",
", , , , , , , , , X , , X < , X + + + + + @ X X X . . . . . + . . . X . . . . . . . . . . . .       ",
", , , , , , , , , , , , , X k F + + < + X X , X X X o . . . . . . . . . . . . j c . . . .     .     ",
", , , , , , , , , , , , , , F | < + , X X < X X X + . + + . . . X . X . . . . c } . . .             ",
", , , , , , , , , , , 2 , , , , , , , < + + X + + X X X . . . + . . . X . X . . .   . .             ",
", , , , , , , , , , , , , , , , , , , < + + + + X X X + + + . . X . . . . . . . . .                 "
};
