/* XPM */
static char *Screenshot_from_2023_11_15_18_59_22_resized[] = {
/* columns rows colors chars-per-pixel */
"50 50 136 2 ",
"   c black",
".  c black",
"X  c black",
"o  c black",
"O  c black",
"+  c black",
"@  c black",
"#  c black",
"$  c black",
"%  c black",
"&  c black",
"*  c #1A111E",
"=  c #131A1A",
"-  c #1D1C1E",
";  c #221C1D",
":  c #2F1B1F",
">  c #29221C",
",  c #3B231E",
"<  c #3E2A1C",
"1  c black",
"2  c #131520",
"3  c #1C1321",
"4  c #231424",
"5  c #2B1625",
"6  c #231A25",
"7  c #2C1922",
"8  c #261928",
"9  c #2C1C2A",
"0  c #321725",
"q  c #361B23",
"w  c #321C2B",
"e  c #3B192A",
"r  c #2E202E",
"t  c #362121",
"y  c #3A2520",
"u  c #33222F",
"i  c #3A212F",
"p  c #362432",
"a  c #3B2533",
"s  c #3F2836",
"d  c #5A321E",
"f  c #4D182A",
"g  c #422229",
"h  c #552029",
"j  c #5B232A",
"k  c #573220",
"l  c #5A3221",
"z  c #412735",
"x  c #4A2533",
"c  c #432836",
"v  c #4B2A37",
"b  c #462938",
"n  c #4D2C39",
"m  c #532434",
"M  c #5A2734",
"N  c #512C37",
"B  c #5E2C37",
"V  c #522D39",
"C  c #5C2D3A",
"Z  c #6D2D26",
"A  c #622229",
"S  c #6B232B",
"D  c #74282D",
"F  c #763427",
"G  c #763C21",
"H  c #7A3B21",
"J  c #642936",
"K  c #6A2A34",
"L  c #632D39",
"P  c #6B2D3A",
"I  c #702334",
"U  c #7F2634",
"Y  c #732F37",
"T  c #732D3B",
"R  c #7C2D3A",
"E  c #8B2E2F",
"W  c #822A37",
"Q  c #8A2E37",
"!  c #842D3A",
"~  c #8C2D3A",
"^  c #912D37",
"/  c #932D3A",
"(  c #9C2D3B",
")  c #923436",
"_  c #9E3533",
"`  c #A32D3B",
"'  c #AC2D3B",
"]  c #B22D3B",
"[  c #A73334",
"{  c #B13337",
"}  c #BB3637",
"|  c #BD3C37",
" . c #B5313A",
".. c #B93339",
"X. c #BD3938",
"o. c #C13736",
"O. c #C33D34",
"+. c #CA3E33",
"@. c #C23939",
"#. c #944323",
"$. c #994623",
"%. c #A24922",
"&. c #AC4E26",
"*. c #B04F25",
"=. c #B95228",
"-. c #BD4132",
";. c #CE472E",
":. c #C0492C",
">. c #CD4B2E",
",. c #D54C2E",
"<. c #DB4D2E",
"1. c #CE5626",
"2. c #D25827",
"3. c #DD5E24",
"4. c #DD522D",
"5. c #C64035",
"6. c #CB4334",
"7. c #D14532",
"8. c #D44A32",
"9. c #D94E30",
"0. c #DB5231",
"q. c #ED5E27",
"w. c #E2552C",
"e. c #E55A2A",
"r. c #EB5D2A",
"t. c #F05F29",
"y. c #E76027",
"u. c #EF6027",
"i. c #ED6129",
"p. c #F26227",
"a. c #F56B25",
"s. c #F86D25",
"d. c #F26228",
"f. c #F77023",
"g. c #F97223",
"h. c #FD7C22",
/* pixels */
"% % % % % % $ % # % % % # # # % # # # # % % # # # # # # . # # . # # # # # X # . # # . . . . . . . . ",
"% % % % % % % % % # # # # # % % % # % # % % # # # # # # # # # # # . . # # # # . . . . # . # . # . . ",
"% % % % % % % % # % # % # # % % # % # # - t y , : : : : 7 $ # . # # . # # # . . . . . # . . . . . . ",
"% % % % % % % % % # % # # % # % = k H $.=.4.e.r.>.| } { ` U I h q # # # # . . # # # . . # . . # # # ",
"% % % # % # % % % # # % % % = l &.e.p.p.p.p.e.<.7.} ..] ] ] ] ] -.#.y # # . . # . . . . . . . . . . ",
"% % # % % % % # % # # # = l *.y.d.d.i.d.t.a.q.e.<.} ] ] ] ] ] ] O.y.>.D 3 . # . # . # . . . . # . . ",
"% % % % % # # % % % % > %.y.p.p.a.a.s.a.d.d.d.d.d.4.O. .] ] ] ]  .5.9.5.! 9 % . . # . . . . . . . . ",
"% % % # % % % # % # d 2.p.p.p.a.g.h.h.f.p.d.d.d.p.r.8.O.] ] ] ] ] ] ]  .' P p = . . . . . . . . . . ",
"% % # # # # # % # d 3.p.a.s.s.f.h.h.h.a.p.p.p.p.p.r.;.o... .] ] ] ] ' ] ] ( C a 2 # . . . . . . . . ",
"% % # # % % % % d 3.p.a.f.f.f.f.h.h.g.p.p.t.p.p.p.p.r.<.7.6. .] ] ] ] ] ] ] / B p * . # . . . . . . ",
"% # % % % # % d 3.p.a.f.f.s.f.s.f.g.p.p.p.p.p.p.p.p.p.d.p.4.5. .] ] ' | ..' ( P n p = X . X . X . . ",
"% # % % # # < 3.p.u.a.a.s.s.s.s.f.a.p.u.p.p.p.p.t.p.p.p.q.<.6..... ...8.6.' Y V n z i @ . . . . . 1 ",
"# % # # # - &.p.a.d.p.p.p.p.p.a.a.p.p.p.p.p.p.p.p.p.p.p.q.<.4.0.9.6.0.i.r.6.R V v z i 9 $ . . . . . ",
"# % # # # G u.p.d.d.t.p.p.p.p.d.p.p.p.p.p.u.p.t.p.p.p.p.p.p.d.d.i.r.d.d.p.u.-.T v a p p 3 X X . . . ",
"% # # % > 1.p.p.p.p.p.p.p.p.d.p.p.p.p.t.p.p.p.p.p.p.p.u.p.p.p.p.p.d.d.p.s.s.q.{ L a p a i X X .     ",
"% # # # G q.p.p.p.p.p.p.p.p.d.p.p.p.p.p.p.p.p.p.p.t.p.p.p.p.p.p.p.d.d.d.d.s.p.6.! c p p v w X X . . ",
"# # % ; :.p.p.t.p.p.p.p.p.p.p.t.p.p.p.p.p.p.i.p.p.p.d.d.d.d.d.p.d.d.d.d.d.d.d.7.` V s p z m O . . X ",
"# # % j 4.p.p.p.p.t.p.p.p.p.p.t.e.<.t.p.u.4.,.e.t.p.d.d.p.d.q.r.e.w.7.6.8.w.8. .` C s p p z 3 X X X ",
"% # $ E r.p.p.p.p.p.p.p.p.p.r.e.>.;.4.e.,.O.o.O.8.w.q.d.q.<.7.} X.X.] ]  . .] ] ` L s p p p 6 X X X ",
"# % 2 [ r.r.p.p.p.p.t.t.r.e.8.+.6.O.o.| ..] ] ] ] O.7.9.+... .] ] ] ] ] ] ' ` ' ! n s p p p 9 X X X ",
"$ % : -.w.+.e.p.p.p.p.p.4.7...]  .] ' ] ] ] ] ] ] ] ]  .] ] ] ] ] ] ] ] ` ~ T ~ P V b p p p 9 O X X ",
"% % Z 7.6...,.p.t.p.p.p.4.6...] ] ] ] ] ] ] ] ] ] ] ] ] ' ` ' ] ] ] ] ' ! V V P C V z p p p p 3 X X ",
"$ # F @.] ..<.p.t.p.p.e.8.+.] ] ] ] ] ] ] ' ` ( ( ( ( / Y L W ' ] ] ] ' ~ V V V V V a p p p p 3 X X ",
"# # Z ..] ..<.p.p.p.e.7.@. .] ] ] ] ] ] ( ~ R T L T T L V n V R ' ] ] ] ' ! C V n c a c c p p 3 X X ",
"$ # S ] ] } <.p.d.d.w.O.] ] ] ] ] ] ] ( R P C V V V V V V V V V T ( ] ] ] ] ! n c a a n V a p 3   X ",
"% $ D ] ] } <.t.d.d.8...] ] ] ] ] ] ] / P V V V V V V V V V V V P ~ ] ] ] ] ~ n s a a n V p p 3 X O ",
"$ % A ] ] ] O.r.d.0. .] ] ] ] ] ] ] ( ! T C V V V V V V V V V V P ~ ' ] ] ] ~ V c p c V V a p 3 X X ",
"# % A ] ] ]  .8.w.O.] ' ] ] ] ] ] ' / R ! R C V V V V n V n V V L R ` ' ` ` R V v b n C V a p 3     ",
"$ # j ] ] ] ] X.5. .] ] ] ] ] ] ] ` ! R P T C V V V n V V V V V V L R R P P V n n V C T N z p 3     ",
"# $ 7 (  .] ' ]  .] ] ] ] ] ] ] ( ~ P L P ~ ~ P V V V V V V V V V V V V V V n z v V ! ` P c w O     ",
"$ $ = ) 8.' Q ( ] ] ] ' ' ] ' / T C V C ~ '  .~ P V V V n V V V V V V V n n s p s C ~ ' T c 9 o     ",
"$ # $ K ,...Q ! ( / ~ / ~ ` ` / ! T L T ( ] ' ) P V V V V V V V V n n b s a p p a n L ` P s 5       ",
"$ # % g >.O./ ! P R R R / ' ] ] ] ` / ^ ' ] ] ^ B V V V V V n n v c s a p p p p p c L ! T a 3 o o   ",
"$ @ @ ; _ X.( T V C R T ~ ' ' ] ] ] ] ' ] ] ] ` J V n V V V v z a u a u p p p p p c P R L r 1 o o o ",
"$ $ @ & j  .R V V V C P L ~ ' ] ] ] ] ] ] ] ] ` P V C C V V v s p p p p p p p p a n / Q s 4 o O O o ",
"$ $ $ $ ; ! L v V V V V C R ' ] ] ] ] ] ] ] ] ` R L R R L V v a p p p p p p p p a L ( B 9 o o 1 o o ",
"$ $ $ @ & w v z c n V n V C ! ` ' ' ] ] ] ' ( R L V C V V V c p p p p p p u p p v P P a 4   o o o o ",
"$ $ O @ @ = u a a c c z b n C P P R ` ' ' R L V V n V n n n s p p p p i a s s c L P n w +   o o o o ",
"$ $ @ $ @ @ * u p p p p p a b n V V P R P n n n n b b c s a p p u i s N C V B Y R R c 1 o o   o o o ",
"= @ & @ O @ = 6 p p p p p p p c V n V n n b a p p p a p p p p p a z N P ! ( ( ' ( J 4 O o o o o o o ",
"& & & & @ & O = 8 p p p p p a c V V V n b p p p p p p p p p p p s V ~ ~ ` ..@.( J 4 o   o o o o o o ",
"@ @ $ X & X $ X & 6 u a p p p a b n n b a p p p p p p p p p p p b T X.6. .{ ) m 4 o o   o o o o o o ",
"& & $ & O $ $ & $ & 6 i p p p p p s b a p p p p p p p p p p p p v / 5.| ~ M i 4 o o o o o o o   o o ",
"& @ & $ O $ O $ O $ & 3 r p p p p a s a p p p p p p p p p p p p V / ` J a 9 1 o o o o o   o   1 o o ",
"& @ & X $ & O O & O O O * 8 u p p c V n a p a a p p p p p p p p b P P i 5 +   o o o o o o o   o o o ",
"& O & & O O O & O O O O X & * 8 p c P ! N b n n c a a a a z z c V m 0 1 o o o o o o o o o o o o o o ",
"O & O & O O O & & O O O O O O O & 5 w x x n v b b V P C J M g q 5 + o o o + o o o o o o o o o o + o ",
"& O & O @ @ & O $ O O O O O O O o O O + 3 8 8 5 5 e f w 5 + + o o o o o o o o o o o o o o o o o o o ",
"O O & O @ O @ O & O O O O O O O O O O O O o O   O o o o o o o O o o o o o o o o o o o o o o o o o + ",
"@ & O O O & O O O O O + O O o O O o o O o O   O o o o o o O O o O o o   o o o o o o o o o o o + o o "
};
