/* XPM */
static char *planet2_resized[] = {
/* columns rows colors chars-per-pixel */
"50 50 142 2 ",
"   c #050519",
".  c #0D011A",
"X  c black",
"o  c black",
"O  c black",
"+  c black",
"@  c #19091E",
"#  c black",
"$  c black",
"%  c black",
"&  c #12111D",
"*  c #1A141D",
"=  c black",
"-  c #1A1A1B",
";  c #221C1C",
":  c #331D1F",
">  c #29221C",
",  c #3A231E",
"<  c #3D281C",
"1  c #160E21",
"2  c #1D0E22",
"3  c black",
"4  c #151321",
"5  c #1B1222",
"6  c #1B1824",
"7  c #241424",
"8  c #291427",
"9  c #241927",
"0  c #241629",
"q  c #281628",
"w  c #251D28",
"e  c #2C1C2D",
"r  c #301326",
"t  c #3B1923",
"y  c #3D1528",
"u  c #321C2B",
"i  c #381F2E",
"p  c #2F1F30",
"a  c #3D2127",
"s  c #30212D",
"d  c #3C222E",
"f  c #362432",
"g  c #3B2533",
"h  c #3E2835",
"j  c #40281C",
"k  c #4C2C1E",
"l  c #57311E",
"z  c #5A311E",
"x  c #4B1429",
"c  c #54162A",
"v  c #5D1E2B",
"b  c #47242C",
"n  c #4C212B",
"m  c #542524",
"M  c #54202C",
"N  c #422735",
"B  c #4B2534",
"V  c #442936",
"C  c #4A2A36",
"Z  c #462A39",
"A  c #4D2C39",
"S  c #5B2536",
"D  c #572C36",
"F  c #5A2C37",
"G  c #522D39",
"H  c #5B2D39",
"J  c #692F25",
"K  c #64262F",
"L  c #612B2A",
"P  c #743A20",
"I  c #652D37",
"U  c #6C2C36",
"Y  c #6D2738",
"T  c #642D3A",
"R  c #6C2D3A",
"E  c #742E37",
"W  c #7A2D37",
"Q  c #742D3A",
"!  c #7C2D3A",
"~  c #7F3237",
"^  c #8E3C24",
"/  c #95362D",
"(  c #852E37",
")  c #8B2E36",
"_  c #832D3B",
"`  c #8B2D3A",
"'  c #912D36",
"]  c #942D3B",
"[  c #9B2D3A",
"{  c #9F3B33",
"}  c #963238",
"|  c #A42D3B",
" . c #AC2D3B",
".. c #B22D3B",
"X. c #A53235",
"o. c #A4303A",
"O. c #AB3139",
"+. c #BC3637",
"@. c #BD3935",
"#. c #B5313B",
"$. c #B93439",
"%. c #BF3B3A",
"&. c #C03737",
"*. c #C43C35",
"=. c #C83F32",
"-. c #C13738",
";. c #9D4424",
":. c #A24922",
">. c #AE4D23",
",. c #B24C24",
"<. c #BE5224",
"1. c #FC7F1F",
"2. c #C04E27",
"3. c #C8472F",
"4. c #D1472F",
"5. c #D54A2E",
"6. c #DA4E2E",
"7. c #CE5726",
"8. c #D25826",
"9. c #DC5C26",
"0. c #D5522C",
"q. c #DD522D",
"w. c #C74334",
"e. c #CC4332",
"r. c #D14633",
"t. c #D34A32",
"y. c #DB4D30",
"u. c #DC5131",
"i. c #E3562C",
"p. c #E65A2B",
"a. c #EB5C2A",
"s. c #E76026",
"d. c #EB6027",
"f. c #EF6029",
"g. c #F26227",
"h. c #F56B25",
"j. c #F86F24",
"k. c #F26228",
"l. c #F57222",
"z. c #F97423",
"x. c #FB7C21",
"c. c #FC801E",
/* pixels */
"% $ $ $ = $ $ $ $ = $ $ $ $ = # # = # $ % $ = $ % % $ % % X % % % % % % % % % % X # % % % % % % o $ ",
"= $ = $ $ $ = $ $ $ $ = $ $ $ $ = # # $ # # $ # $ # $ $ $ $ % % % % % % % % % % % X % % % o o % o % ",
"$ $ = $ $ $ $ $ $ $ $ $ = $ $ = $ # = $ ; < , : , , , < j * % $ % % % % % % % % % % X % % % o % 3 o ",
"$ $ $ $ = $ $ $ $ = $ $ $ $ $ $ = k P :.<.s.q.0.0.w.<.t.p.,.^ m ; % % X % % % % X X % % X % $ % X $ ",
"$ $ = $ $ $ $ $ $ $ $ $ $ $ 3 z >.l.g.g.g.g.g.i.6.4.6.p.k.g.g.r.' b - $ # $ $ X # % % % X % % o 3 X ",
"$ $ = = $ $ = $ $ $ $ $ = z ,.s.d.l.g.g.g.g.a.i.i.p.a.g.k.g.k.a.*.[ D s * % X $ X X X % $ o X 3 X $ ",
"$ $ = $ $ $ $ $ $ $ $ > ;.d.h.h.l.d.d.g.g.g.g.g.6.6.i.y.p.g.p.q.*...[ H N w % X # # X X X X X X X X ",
"$ = $ $ = $ $ $ $ $ l 8.h.x.x.c.1.l.h.g.g.g.g.g.6.5.e.e.i.g.g.p.*.....] T V f % X X X % X $ o $ $ X ",
"$ = $ $ $ $ $ $ $ l 9.l.z.c.c.c.1.l.g.g.g.g.g.g.g.p.5.r.i.g.g.k.3.$.....] F A g 3 X $ X X X X X X X ",
"$ $ = $ $ $ $ $ l 9.h.c.c.x.c.x.l.j.g.g.g.g.f.g.g.g.a.i.k.g.k.k.a.&.....[ E G H D 4 X X # X X X X X ",
"$ $ $ $ $ $ $ l 9.k.z.c.c.c.c.l.j.j.g.g.g.f.g.g.g.g.g.g.k.g.k.k.d.*...] U H A G _ Y 4 X X X X X X X ",
"$ $ = $ $ $ < 9.k.h.x.c.c.x.x.l.h.h.g.g.g.g.g.g.g.g.g.g.g.k.k.k.g.r.#.) D G G G H T h 3 X X X X X X ",
"$ $ $ $ $ > >.k.k.j.x.c.c.z.h.f.g.g.g.g.g.g.g.g.g.g.g.k.g.g.g.j.l.k.t. .! G A Z h Z G i X X X X X   ",
"$ = $ $ $ P k.k.k.k.l.z.z.j.g.g.g.g.g.g.g.g.g.g.g.g.g.g.g.g.h.1.1.h.k.e.| T B g f g G _ 0 X X X X X ",
"$ $ $ $ > 7.h.k.k.k.h.k.k.k.k.g.g.g.g.g.g.g.g.g.g.g.g.g.k.k.j.1.x.l.g.u...! B g f f N _ K o X X X X ",
"$ $ $ $ z l.f.k.k.k.k.k.k.k.g.g.g.g.g.g.g.g.g.g.g.k.k.k.k.k.h.z.z.j.g.a.-.] A g f f f T _ 4 X X   X ",
"# # X - 2.g.g.g.k.k.k.k.g.g.g.g.g.g.g.g.k.k.k.k.k.g.g.g.g.g.g.g.g.g.a.*...[ D h f f f V R u X X X X ",
"$ # X J a.g.k.g.k.k.k.k.g.g.g.g.g.g.g.g.g.g.k.k.g.g.g.g.g.g.g.a.p.i.*.....[ D V f f f f h h 4 3 X   ",
"$ $ % :.g.g.k.k.k.g.k.k.g.g.g.g.g.g.g.g.g.g.g.g.a.a.g.g.g.g.a.*.$.$.......| H A N f f f f h 6       ",
"$ $ - X.i.g.k.k.g.f.a.k.k.a.a.p.q.5.i.a.k.g.g.p.5.5.p.p.a.p.e........... .` D G V f f f f f e     X ",
"X $ 9 | e.k.k.k.f.5.r.y.5.e.e.=.+.+.+.=.4.6.6.w.+.*.e.r.t.w.............o.Q G G B g f f f f e o   X ",
"$ $ v ..=.k.k.g.a.4.4.=.+...........................e.r.e.@.....[ [ .. .] T G G A N g f f f f 4     ",
"# X v ..e.k.g.a.6.r.*...............................+.w.@.......| ] o.` T G G G G G h g f f f 1     ",
"# # n ..=.k.k.y.*.+.$.................................$........... .] T G G G G H T C N f f f 4     ",
"X $ n  .w.g.a.r............... .| ] ` ] | .. .] [  ...........#.#...Q G G G G H ` ` H Z f f f 1     ",
"% X a [ w.g.i.-...............` _ ! ! _ [  .] _ _ ` | ........#.$. .Q G G G G H [ ` T Z f f f 1   X ",
"% X b [ *.i.*............... .` ` _ _ ! _ _ R R R ! | ..............[ H G G G R | ! G V f f f 1   . ",
"X % v ) #.=.$.....................| _ ! _ R H G R _  ...............[ R G H R ] | _ G h f f f 1     ",
"X % v ( | ..........................| _ R H G H ! ` | ...... . . .[ ! T T ! |  ...` G Z f f f 1     ",
"% X t ) ]  ......................... .` T H H R ! ! ` [ [ ` ! Q R H G G T ] ......| H A g f f +     ",
"+ % - X.E ` [ | | .................. ._ Q ! ! _ _ ! ! ! R G G G G G G G H ]  ... . .R A h f 0 . .   ",
"X o & / ~ D E _ ` ...... .|  . ..... .` ! ! ! R R R R T G G G G G G G G H R !  .....! G h f 0 .   . ",
"o o o L ( A F E ` ........ .........| ( W T H G G G G A G G C A A C C A G A T |  .#.! C f f 5 .   . ",
"o % o 9 E G D R Q | ................X.( W R H G G G A C V N h N h g g N N Z T o... .W N f e . . . . ",
"o % X + M C G G G _ ................ .' _ _ _ T G G C g f f f f f f f f f Z T | .. .T h f 5   + .   ",
"o o o o * d N A A H } ................` ]  .| T A A N f f f f f f f f f f Z E $.#.Q N f p . . . .   ",
"o o X o o 9 f g V Z H ` [ | ....O.| ] E Q _ Q H G A N f f f f f f f f f g V _ %.] Z f p 2 . . . . . ",
"o + o o o + s d f f V G R _ | ] E R H G G G G G A C g f f f f f f f g g Z T [ | T g f p . . . . . . ",
"o o o o o o @ s f f g Z G T T H G Z V Z Z Z V V V N g f g f g N Z Z C Z H [ | E C f p 1 . . . . O O ",
"o o + o o o + 9 f f f Z G G G G N g g f g g f f d f f f h V G ! _ _ ~ R _ [ ` R V f 2 . . . . . . . ",
"o o o o + + o + 7 f f f Z G G Z h g f f f f f f f f f h A G Q [ .... .X... .[ U f 2 O . . . . . O O ",
"o o O O O o o . + 7 f f g V Z N N h f f f f f f f f f Z G _ o.O.....*.4...] T a 2 O O . . O O . O O ",
"o + + + o + . + . + 0 f f g Z N g f f f f f f f f f f Z R #.u.p.+...@.{ I V t * O O O O O . . O O O ",
"+ + o o O O + . + . + 2 p V A B g f f f f f f f f f f Z R #.u.r.| Q S N f e + O O O . . O O . O O O ",
"+ + O + O + . + + O . . @ q B R S V N h g f f f f f f h G ] #._ G g f e * O O O O O O O O O O O O . ",
"O O O O + . + O . + O 1 O O @ r B A A A Z N h h g g g f Z R | R g u 7 + O O O O . . . O O . . O . O ",
"o O + + O + + O O O O O O O O O 2 8 u i h Z R ! Q Q H Z B K v : 7 O O O O O O O O O O O O . O O O O ",
"O O O + + O O O + O O O 1 O O O O O O O 2 8 x c c y 8 8 7 + . O O O O O O O O O O O O O O O O O O O ",
"O + + O + O O O @ O O O O O @ O O O O O O O O O O O O O O O O O O O O . O O . O O O O O O O O O O O ",
"O O + O O O O O O O O O O O O O O O O O O O O O O O O O O O O O O O O O O O O O O O O O O O O O O O "
};
