/* XPM */
static char *Black_hole_resized[] = {
/* columns rows colors chars-per-pixel */
"50 50 179 2 ",
"   c None",
".  c #161434",
"X  c #181736",
"o  c #181837",
"O  c #161838",
"+  c #4B143C",
"@  c #510B2D",
"#  c #4F0E32",
"$  c #4E1237",
"%  c #4B143C",
"&  c #47143F",
"*  c #531133",
"=  c #501438",
"-  c #0A015E",
";  c #1C0E5D",
":  c #1D105E",
">  c #390E45",
",  c #310E4B",
"<  c #3D1346",
"1  c #33114D",
"2  c #3A1349",
"3  c #210F5A",
"4  c #2B1154",
"5  c #22115B",
"6  c #301250",
"7  c #3E285C",
"8  c #0A0463",
"9  c #0E0C66",
"0  c #0E0F69",
"q  c #140E64",
"w  c #190F60",
"e  c #100F68",
"r  c #0F126C",
"t  c #161064",
"y  c #191062",
"u  c #141268",
"i  c #0E1672",
"p  c #0F1A75",
"a  c #0E1D79",
"s  c #101B75",
"d  c #101E78",
"f  c #0E227E",
"g  c #1C2374",
"h  c #10217B",
"j  c #1A297B",
"k  c #163970",
"l  c #3C2C62",
"z  c #263D7E",
"x  c #22377C",
"c  c #313E7E",
"v  c #3B326A",
"b  c #431342",
"n  c #471A46",
"m  c #266276",
"M  c #286578",
"N  c #2A6C7D",
"B  c #44767C",
"V  c #467B7F",
"C  c #0F2681",
"Z  c #0F2D88",
"A  c #102B85",
"S  c #102E88",
"D  c #142A81",
"F  c #0F328E",
"G  c #11328B",
"H  c #1A3183",
"J  c #0F3A97",
"K  c #123A94",
"L  c #103E9A",
"P  c #103590",
"I  c #253B85",
"U  c #1D5E8F",
"Y  c #11429D",
"T  c #1B4B9E",
"R  c #184095",
"E  c #1A488F",
"W  c #224F9A",
"Q  c #294B91",
"!  c #24519D",
"~  c #2F4587",
"^  c #2B7383",
"/  c #2A7788",
"(  c #2D7C8A",
")  c #0F45A3",
"_  c #0F4CAA",
"`  c #1145A1",
"'  c #124BA6",
"]  c #114EAA",
"[  c #194FA3",
"{  c #0F50AD",
"}  c #1353AD",
"|  c #1B5BAB",
" . c #0C5DBC",
".. c #1256B1",
"X. c #135BB5",
"o. c #1E5EB0",
"O. c #2057A5",
"+. c #2159A6",
"@. c #1A64AE",
"#. c #1362BD",
"$. c #1C66B4",
"%. c #1B70B8",
"&. c #366FA1",
"*. c #2166B0",
"=. c #2379B3",
"-. c #437CA0",
";. c #1265C2",
":. c #146AC4",
">. c #146EC8",
",. c #1771C6",
"<. c #1A73C5",
"1. c #1A7AC7",
"2. c #197CCB",
"3. c #1371CD",
"4. c #0D78D9",
"5. c #217AC6",
"6. c #308A97",
"7. c #3F9499",
"8. c #2D8896",
"9. c #258ABD",
"0. c #488B8C",
"q. c #5BA49D",
"w. c #4E93AB",
"e. c #57ABBB",
"r. c #63BBBE",
"t. c #1D82CA",
"y. c #2784CA",
"u. c #2799CC",
"i. c #2CA4CC",
"p. c #2FAACF",
"a. c #30ADCF",
"s. c #3BBEC2",
"d. c #2EACD3",
"f. c #29A1D0",
"g. c #30AED0",
"h. c #2FB2D5",
"j. c #32B4D3",
"k. c #34BAD3",
"l. c #3EBED6",
"z. c #48B2C1",
"x. c #4BBAD5",
"c. c #3ECCCE",
"v. c #3BC2C6",
"b. c #3BC9D6",
"n. c #3FD6D7",
"m. c #4DCBC5",
"M. c #52CCC6",
"N. c #54D3CB",
"B. c #5ADACD",
"V. c #41C0D3",
"C. c #5ECED7",
"Z. c #58C8D7",
"A. c #40D3D2",
"S. c #41D9D7",
"D. c #42DDDB",
"F. c #4BDED9",
"G. c #46D4D8",
"H. c #5ED1DA",
"J. c #64C1C2",
"K. c #61DCCD",
"L. c #60CED7",
"P. c #62D3D9",
"I. c #67D9DA",
"U. c #44E1DD",
"Y. c #4CE2DB",
"T. c #5AE6DB",
"R. c #5BE9DC",
"E. c #53E8DE",
"W. c #7CEBD1",
"Q. c #66F0DE",
"!. c #4DE6E0",
"~. c #5AECE0",
"^. c #62F2E2",
"/. c #66F9E4",
"(. c #7CFEE2",
"). c #71FCE5",
"_. c #85FFE2",
"`. c #88FFE4",
"'. c #8AFFE8",
/* pixels */
"                                % % %                                                               ",
"                              % % % % %   % % %       % %                                           ",
"                            % % % % % % % % % % %   % % % %                                         ",
"                          % % 2 t t t t y t : % % %     %                                           ",
"                        % 1 H R 9 9 9 9 r 0 e y y : b       % % %                                   ",
"                    % 6 : w P ;...Y q e 9 9 r 9 e e y r b % % % % %                                 ",
"                  % 1 q 9 9 G >.>.#.} } ..} } ' r e 9 9 ; 3 ; b * $ %                               ",
"                $ 1 q F } ] ..:.:.:.:.:.:.>.:.;.' ' ' ' ] ] ] [ W g < % %                           ",
"              $ , G } I l Q >.:.>.>.:.:.;.:.:.:.j.j.j.j.,.:.;.f.j.%.g 3 2 % %                       ",
"              c T  .~ n l +.>...A A K :.:.;.,.j.S.S.D.G.j.g.g.b.D.b.E 8 w 2 % % %                   ",
"            $ ! 4.  # l | 3...h d L ' ;.;.,.j.D.D.U.D.D.D.D.D.S.n.U.=.L C ; 2 $ % %                 ",
"                  # l @...K h - A >.1.g.g.i./ ^ ^ ^ ^ ^ c.D.^.Q.F.n.k.t...C w 2 = % %               ",
"                # l o...a 8 I &.' :.%.( ( ^ o X X X O O N ( 0.W.R.n.D.u.;.L 9 w 2 % % %             ",
"              $ l o...p z -.r.P.2.y.k X X X + + + + + + X X . B K.Y.n.k.t.] f 9 t < % % %           ",
"              $ I ` a I J.'.(.z.U N X + + + + + + + + + + + + . V 7.M.!.u.>.L q e t < % b %         ",
"            % < ; 9 8 w.'.).M.m X o + + + + + + + + + + + + + + O . B m.u.;.} h e r t < % %         ",
"          % < t 0 9 x r.`./.8.. + + + + + + + + + + + + + + + + + + . 0.V.1.>.Y 9 r 0 y % %         ",
"          = y 9 9 i e.'.(.N.M o + + + + + + + + + + + + + + + + + + O ( T.x.1.] p 9 9 y b %         ",
"        % b y e a @.H.(.N.M X + + + + + + + + + + + + + + + + + + + + O B B.i.:.' 9 r 9 y =         ",
"        b t 9 s ] Z._.~./ . + + + + + + + + + + + + + + + + + + + + + + X ( k.<.] p 9 r y =         ",
"      % y 9 s } ;.Z.T.n.( o + + + + + + + + + + + + + + + + + + + + + + O / !.i.;.' q 9 q b %       ",
"    % b y e } >.;.h.D.n.N o + + + + + + + + + + + + + + + + + + + + + + O M n.j.,.' e u t 5 b %     ",
"  % b t e r } :.;.g.D./ o + + + + + + + + + + + + + + + + + + + + + + + + o ^ U.j.` 9 5 % % % %     ",
"  % y r r } :.:.;.g.D.^ O + + + + + + + + + + + + + + + + + + + + + + + + o ^ U.j.) 3 b   % % %     ",
"% b q e r ..:.:.;.g.U.^ O + + + + + + + + + + + + + + + + + + + + + + + + o ^ U.j.] ; % %   % %     ",
"% t r 9 } :.:.:.#.p.U.^ O + + + + + + + + + + + + + + + + + + + + + + + + o ^ D.R.e.9 5 % %   %     ",
"b t r r ..:.:.:.;.,.j.^ O + + + + + + + + + + + + + + + + + + + + + + + + o / D.R.L.) ; % %   %     ",
"% t r } #.:.:.;.:.;.h.^ O + + + + + + + + + + + + + + + + + + + + + + + + o ^ ~._.P._ 3 % %         ",
"% < t X.D ..>.:.:.#.,.i.N + + + + + + + + + + + + + + + + + + + + + + + O N c.R._.H.' 9 5 % %       ",
"  % t X.h } :.:.:.;.;.h.( + + + + + + + + + + + + + + + + + + + + + + + o ( R.(._.L._ 9 y % %       ",
"  n [ A r s ..:.:.:.#.m.0.O + + + + + + + + + + + + + + + + + + + + + + . / ^._._.C.#.) w % %   %   ",
"  % 7 t r q } >.K _ f.S.K.B + 4 + + + + + + + + + + + + + + + + + + + o M v.R.'.r.W >.} ; % %   %   ",
"  % % < q 9 } >.A Y j.D.Q.W.B O + + + + + + + + + + + + + + + + + + O N v.R.(.I.| f >.} ; % %   %   ",
"    % % 2 w ..>.A s @.j.F.).q.. + + + + + + + + + + + + + + + + + + . 8.D.Q.I.y.` D >.} ; % %       ",
"      % % ; C X...d L d.D.Y.m.m X o + + + + + + + + + + + + + + X . m v.U.V.y.} h S ,.} ; %         ",
"        % 1 w A #.S L t.k.n.n.s.0.( . + + + + + + + + 6 + + + X V q.m.k.u.1.:.Y - S >.} ; %         ",
"          % 2 , j Y K ] t.k.S.D.!.K.B . o O + + + + + + O O X M N.Q.b.1.;.;.:.Y 9 S >...; %         ",
"    %       % % > j L K ] t.k.S.D.Y.B.( ( N O . O O O + M 8./ v.U.k.1.#.;.;.>.Y 8 A #.Z : %         ",
"  % %         % % > T P P >.t.p.i.i.f.h.D.c.^ ^ N N / N c.U.U.k.p.@.{ :.;.:.:.Y s ' } 9 y % %       ",
"  % %             $ v j A ` Y ] :.;.<.x.R.R.~.D.U.U.U.U.k.p.g.| Y p ) :.:.:.,.Y G #.F w 6 % %       ",
"  % % %   % % % %   % 4 9 9 e h } :.y.I.`.`._.T.T.R.R.j.} ` ` s 9 q ` >.:.>.X.S g I 9 : % % %       ",
"    % %   % % < b = < 5 r 9 e i L :.#.5.C.C.P._._.`.L.<.i 9 9 r 9 h } :.:.X.Z q 1 *   y % %         ",
"    % %   % % 5 4 < 5 9 9 9 9 S >.:.:.:.#.;.,.P.P.L.,.] s e e 9 9 ] >.X.} S w 1 %   1 4 %           ",
"            % 4 r 9 a C C A h Y >.>.#...>.:.#.} ] } } r e e r 9 9 L ..A 9 9 4 % %   4 =             ",
"              % 4 ; K o.+.+.+.O.O.| Y s ....' r 9 r 9 r e e e r e 9 9 r r u 1 % %   % %     %       ",
"                % $ 4 1 % $ % % % < w w y 9 r 9 y 9 r 9 e e e 9 9 r r 9 t 1 $     % %     % % %     ",
"                  % % %           % % % b t t : b y e w r e t t y t t t 6 % %     %       % %       ",
"                                        % % % % % & : b y t < % % % % % % %     %                   ",
"                                          % % % %   b % % % % % % % % %                             ",
"                                                      % % %     % % %                               "
};
