/* XPM */
static char *New_Piskel__1__resized[] = {
/* columns rows colors chars-per-pixel */
"50 50 4 1 ",
"y c yellow",
"  c black",
". c #CAC6C6",
"X c white",
/* pixels */
"                              XX                  ",
"                                                  ",
"                                                  ",
"     X                                            ",
"     X                                            ",
"                                                  ",
"                   y                              ",
"                   .                              ",
"                  XXX                yy           ",
"                yXXXXXy                           ",
"                yXXXXXy                           ",
"                  XXX                             ",
"                   .                              ",
"                   y                              ",
"                                                  ",
"X                                                X",
"X                                                X",
"                                                  ",
"                                                  ",
"           X                                      ",
"                                                  ",
"                                                  ",
"                                                  ",
"                                 y                ",
"                                 y                ",
"                                XXX               ",
"                               XXyXX              ",
"               yy            yyXyyyXyy            ",
"                               XXyXX              ",
"                                XXX               ",
"                                 y                ",
"                                 y                ",
"                                                  ",
"                                                  ",
"                                       XX         ",
"                                       XX         ",
"                                                  ",
"                                                  ",
"                                                  ",
"           y                                      ",
"           .                                      ",
"          XXX                                     ",
"         XXXXX.y       XX                         ",
"       y.XXXXX         XX                         ",
"          XXX                                     ",
"           .                                      ",
"           y                                      ",
"                                                  ",
"                                                  ",
"                              yy                  "
};
