/* XPM */
static char *New_Piskel__1__resized[] = {
/* columns rows colors chars-per-pixel */
"50 50 4 1 ",
"y c yellow",
"  c black",
". c #CAC6C6",
"X c white",
/* pixels */
"                               XX                 ",
"                                                  ",
"                                                  ",
"    X                                             ",
"    X                                             ",
"                                                  ",
"                                                  ",
"                   .                              ",
"                  XXX               yy            ",
"                 XXXXX                            ",
"                 XXXXX                            ",
"                  XXX                             ",
"                   .                              ",
"                                                  ",
"                                                  ",
"                                                XX",
"                                                XX",
"                                                  ",
"                                                  ",
"          X                                       ",
"                                                  ",
"                                                  ",
"                                                  ",
"                                                  ",
"                                 y                ",
"                                XXX               ",
"                               XXyXX              ",
"                yy            yXyyyXy             ",
"                               XXyXX              ",
"                                XXX               ",
"                                 y                ",
"                                                  ",
"                                                  ",
"                                                  ",
"                                      XX          ",
"                                      XX          ",
"                                                  ",
"                                                  ",
"                                                  ",
"                                                  ",
"           .                                      ",
"          XXX                                     ",
"         XXXXX.         XX                        ",
"        .XXXXX          XX                        ",
"          XXX                                     ",
"           .                                      ",
"                                                  ",
"                                                  ",
"                                                  ",
"                             yy                   "
};
