/* XPM */
static char *so_long_spaceship_resized[] = {
/* columns rows colors chars-per-pixel */
"50 50 176 2 ",
"   c black",
".  c black",
"X  c #0A3C4A",
"o  c black",
"O  c black",
"+  c black",
"@  c #133755",
"#  c #123955",
"$  c #173A59",
"%  c #1C3A5A",
"&  c #213A5D",
"*  c #243D61",
"=  c #2C3D63",
"-  c #313E66",
";  c #3B3D68",
":  c #443E6F",
">  c #463F71",
",  c #1D4546",
"<  c black",
"1  c #18454A",
"2  c black",
"3  c #0A4356",
"4  c black",
"5  c #17495B",
"6  c black",
"7  c #274B42",
"8  c #28504B",
"9  c #345244",
"0  c #38564D",
"q  c #365D58",
"w  c #3D635D",
"e  c #1B4F62",
"r  c #2D4064",
"t  c #334168",
"y  c #3B416D",
"u  c #255968",
"i  c #2A6271",
"p  c #356C7B",
"a  c #445D48",
"s  c #475E51",
"d  c #466149",
"f  c #536A4E",
"g  c #596A4E",
"h  c #6E794F",
"j  c #71764E",
"k  c #6A7651",
"l  c #717A50",
"z  c #464576",
"x  c #4A4472",
"c  c #434974",
"v  c #494678",
"b  c #53447A",
"n  c #54497B",
"m  c #5A487D",
"M  c #64467F",
"N  c #7A8357",
"B  c #85854C",
"V  c #978F4D",
"C  c #898E5B",
"Z  c #928D56",
"A  c #AB9851",
"S  c #BBAE5E",
"D  c #969861",
"F  c #C9B056",
"G  c #D7B859",
"H  c #E2BD58",
"J  c #CAB560",
"K  c #FEC64E",
"L  c #EEC358",
"P  c #FDC952",
"I  c #F6C95B",
"U  c #FCD05C",
"Y  c #C2C06F",
"T  c #CDC874",
"R  c #E7CB68",
"E  c #FDDA68",
"W  c #E1D87A",
"Q  c #FDE06F",
"!  c #FDE572",
"~  c #FFED7A",
"^  c #3C7384",
"/  c #5A4780",
"(  c #644681",
")  c #634B83",
"_  c #6C4E88",
"`  c #704B86",
"'  c #714D8B",
"]  c #6F508B",
"[  c #72518D",
"{  c #7C528F",
"}  c #7A4E92",
"|  c #7A5191",
" . c #4C7788",
".. c #4C7A8B",
"X. c #8D4E96",
"o. c #845494",
"O. c #8A5296",
"+. c #835598",
"@. c #8B559B",
"#. c #85599C",
"$. c #8C5A9D",
"%. c #93529C",
"&. c #92589F",
"*. c #8D53A0",
"=. c #9556A1",
"-. c #9E53A3",
";. c #965CA6",
":. c #9C5AA6",
">. c #955BA8",
",. c #9E5CA9",
"<. c #A254A5",
"1. c #A45BA6",
"2. c #A655AA",
"3. c #A45DAB",
"4. c #AB5AAC",
"5. c #AC5EB1",
"6. c #B25EB3",
"7. c #8B67AE",
"8. c #8A69AB",
"9. c #9267AA",
"0. c #9C63AC",
"q. c #8971AE",
"w. c #8878B2",
"e. c #9971B5",
"r. c #947EBD",
"t. c #AD69A4",
"y. c #A160AB",
"u. c #AD61AE",
"i. c #B463AE",
"p. c #BB6AAD",
"a. c #A761B0",
"s. c #AB61B2",
"d. c #B462B4",
"f. c #B965B2",
"g. c #BD6AB4",
"h. c #B564BA",
"j. c #B966B9",
"k. c #BE6CBC",
"l. c #C06EAF",
"z. c #C678AE",
"x. c #C06EB4",
"c. c #C16EBF",
"v. c #C574B4",
"b. c #C271B8",
"n. c #BC6DC0",
"m. c #C26EC3",
"M. c #C472C2",
"N. c #5D8697",
"B. c #799FB1",
"V. c #8B81B5",
"C. c #85A8B8",
"Z. c #8F91C2",
"A. c #9899C7",
"S. c #8FA5CE",
"D. c #8DA8CD",
"F. c #94A8CF",
"G. c #97A8D2",
"H. c #9EB2D6",
"J. c #AAC3DE",
"K. c #A8C5E3",
"L. c #ACC4E3",
"P. c #B3C4E4",
"I. c #B5CFE8",
"U. c #B4D4EC",
"Y. c #B8DBEE",
"T. c #BEE7F8",
"R. c #C5E4F5",
"E. c #C8E4F4",
"W. c #C4E9F6",
"Q. c #CAECF7",
"!. c #C4E7F9",
"~. c #C4E9F9",
"^. c #CAEBF9",
"/. c #D2EEFB",
"(. c #CDF0FB",
"). c #D2F1FB",
/* pixels */
". . . . O . . O O . . O . . . . . . . . . . O . 2 . . . . . . . O . . . . . O . . . 2 . . . . . . . ",
". . . . . . . . . . . . . . . . . . . . . . . . . . . . . . . . . . . . . O . . . . . . . . . . . . ",
". . . . . . . . . . . . . . . . . . . . . . . . . . . . . . . . . . . . . O . . . . . . . . . . . . ",
". . . . . . . . . . . . . . . . . . . . . . . . . . . . . . . . . . . . . O . . . . . . . . . . . . ",
". . . . . . . . . . . . . . . . . . . . . . . . . . . . . . . . . . . . . O . . . . . . . . . . . . ",
". . . . . . . . . . . . . . . . . . . . . . . . . . . . . . . . . . . . . O . . . . . . . . . . . . ",
". . . . . . . . . . . . . . . . . . . . . . . . . . . . . . . . . . . . . O . . . . . . . . . . . . ",
". . . . . . . . . . . . . . . . . . . . . . . . . . . . . . . . . . . . . O . . . . . . . . . . . . ",
". . . . . . . . . . . . . . . . . . . . . . . . . . . . . . . . . . . . . O . . . . . . . . . . . . ",
"O . . . . . . . . . . . . . . . . . . . . . . . . . . . . 2 . . . . . . . . O . . . . . . . . . . . ",
". . . O . . O . . O . . O 2 . . . . . . . O . . . . . . . . O . . O . . . . . . . . . . . . . . . . ",
". . . O . . . . . . . . . . . . . . O . . . O . . . . O . . . . . . . . . . 2 O . . . . . . . . . . ",
"O . . . O 2 . . . O . O . . O . O . . . . . . O . . . O . . . . . . . O . . . . . . . . 2 2 . . . . ",
". . . . . . . . . . O . O . . . . . . . . . + % % % % % # . . . . . . . . . . . . . . . u p 2 . . . ",
"2 . . . . . . . . . . . . . O . . O O . + r / +.+.o.o.+.) - + . . O O . . . . . . . 2 5  .N.8 2 . . ",
". . . . . . . . . . O . O . . . . . + * m @.5.n.m.c.n.h.5.=.) = + O O O O . . O . . 3 ..B.C.N.e . . ",
". . . . . O . O . . . . . . . . . + v $.d.j.j.n.j.z.f.d.f.d.u.$.m @ O O O . . . . . . 2  .N.u   . . ",
". . . . . . O . . . . . . . O O . * #.k.k.p.z.f.j.b.d.d.z.p.d.d.&.= O O . . . . . . .   i ^ . . . . ",
"O . . . . . . . 2 . . O O O O O + n h.M.z.p.d.d.d.6.d.6.p.i.k.g.5.) + . . . O . . . . . 3 3 . . . . ",
". . . . . . . . . . . . . O O O * $.k.j.t.9.7.8.8.8.8.8.8.9.t.i.d.=.- . . . . . . . . . . . . . . . ",
". . . 2 . . . + + # # O O O O O ; 1.j.0.w.G.P.J.J.L.J.K.K.H.V.0.d.3.z + . . . . # # @ @ O . . . . 2 ",
". . . O . O - [ | { _ * O O O @ ` u.0.A.Y.Q./.^././.^.!.~.W.Y.F.0.6.} $ . . . & ) | { [ y O . O . . ",
"O . . . . & o.d.d.6.u.] $ O O @ { u.q.K.^./.Q././.!.!.~.W.Q./.I.q.5.O.$   . $ ) 4.d.s.s.$.= . . . . ",
"O . . . O t 1.2.-.-.4.,./ v v b &.s.q.I.^.^.)./.W.~.!.R.Q.)./.U.w.4.;.n c c / >.6.-.-.2.y.c X O . . ",
". . . . . y 3.4.2.2.4.6.s.a.a.5.s.u.9.P.^././.~.~.~.~.Q.).Q./.U.q.4.s.u.a.a.5.6.5.<.2.2.3.x + O O O ",
". . . . . y ,.5.<.-.5.:.) / n M X.1.y.r.L.R.T.~.~.!.^.(.^.E.P.Z.3.2.X./ n b ( =.6.<.<.2.3.y X O 2 . ",
". . . . . $ ) 3.3.5.,./ # O . $ M =.d.s.e.Z.D.D.S.S.F.F.G.A.e.5.6.2.' $ + O @ x >.5.5.3.' & O O . . ",
". 2 . . . . % z > b > $ O O O O ; %.4.i.i.1.>.>.>.>.>.,.>.1.i.d.2.%.> + O O . + y b v x & . . O . . ",
"O . . . . . .   0 s # O O O O O = X.-.4.b.b.f.l.f.6.f.x.6.x.v.4.<.X.; O O O . . o s 0 X .   . O . . ",
". . . . . .   d Y W C , O O . . % ` -.<.4.d.d.z.f.6.f.v.p.i.i.-.-.' * O O O . o N W T f X O O O O . ",
"O O . . 2 . 7 S ! ~ R h   . 2 . O y O.<.<.4.d.d.f.j.6.f.6.4.<.<.*.> + . . .   f R ~ ! J 9 O . O . . ",
". . . . . . 9 G E E I B   O . . . + > X.-.<.4.4.4.4.4.4.4.<.<.X.b $ . . . .   j I Q E L a . . O O . ",
"  . . . . . 9 G U U I B   2 2 . .   @ & _ %.<.2.<.<.<.<.<.%.' = @ . . . . .   k L U P H 0 . . . 2 . ",
"< . . . O O o V K K G a . . . . . . . O % > ` } } } } } _ : & O . . . . . .   9 F P K A , . . 2 . . ",
"o . . . . O O a F L Z o . . . . . . . O O + @ % % % % % $ + O O . . . 2 . . .   N L G g . . . . . . ",
"o . . . . O O   k D 7 . . . O . . O . . . . . . . . . . . O . . . . . . . . . . , C l < . . . . . . ",
"o . . . . . O O 1 w . . X O O . . . . . . . . . . . O O . . . . . . O . O . . . . q 8 . O . . . . . ",
"  . . . O O O O O O . . O O O . . . . O . . . . . . O . . . . . . O . O . . . . . .   O . O . O . . ",
"  . . . . O O O O O O O O O O . O . . . . . . . . . . . . . . . . . . . . . . . . . . O . . . . . . ",
"2 . . . . . O O O . . . . O O . . . . . . . . . . . . . . . . . . . . . . . . . . . . . . O 2 . . . ",
"2 . . . . . . O . . . . O . . . 2 O . . . . . O O . . 2 . . . . . . . . . . . . . . O . . . . . . . ",
"+ . . . . . . . . . . O . . . . . . O . . . . . . . . . . . . . . . . . . . . . . . . . . . . . O . ",
"O . . . . . . . O . . . . . O . . . . . . . . . . . . . 2 . . . . . . . . . 2 . . . . . . . . . . . ",
". . . . . . . . . . . . . . . . . . . . . . . . . . . . . . . . . . . . . O . . . . . . . . . . . . ",
". . . . . . . . . . . . . . . . . . . . . . . . . . . . . . . . . . . . . O . . . . . . . . . . . . ",
". . . . . . . . . . . . . . . . . . . . . . . . . . . . . . . . . . . . . O . . . . . . . . . . . . ",
". . . . . . . . . . . . . . . . . . . . . . . . . . . . . . . . . . . . . O . . . . . . . . . . . . ",
"O O . 2 . . . . . . . . . . . . . . O . . . . . . . . 2 4 2 . . . . . . . . . . . . . . . . . . . . ",
". O . . . . . . . O . . O 2 . . . . . . . . . 2 . . . 2 6 2 .   . . . . . . . . . . 2 . . . O . . . ",
". . . . . . . . . . . . . . . . . . . . . . O . . . . . 2 . . . . . . . . . . . . . O . . . . . . . "
};
